# xmcd
# 
# Track frame offsets:
#     150
#     18275
#     43438
#     68951
#     93011
#     103447
#     123737
#     142442
#     168987
#     182146
#     211021
#     230746
#     244025
#     259955
# 
# Disc length: 3753
# 
# Revision: 4
# Processed by: cddbd v1.5.2PL0 Copyright (c) Steve Scherf et al.
# Submitted via: fre:ac v1.0.27
# 
DISCID=b40ea80e,d70ea70e
DTITLE=Various Artist - Whole Lotta Blues
DYEAR=0
DGENRE=
TTITLE0=Eric Gales - Custard Pie
TTITLE1=Matt Tutor/Eirc Gales/Derek Trucks - Custard Pie (revisited)
TTITLE2=Alvin "Youngblood" Hart - Heartbreaker
TTITLE3=Otis Rush, Eric Gales - I Can't Quit You Baby
TTITLE4=Magic Slim, Billy Branch, James Cotton - When the Levee Breaks
TTITLE5=Magic Slim, James Cotton - When the Levee Breaks (part 2)
TTITLE6=Chris Thomas King - Hey Hey (What Can I Do)
TTITLE7=Clarence "Gatemouth" Brown - Rock 'n' Roll
TTITLE8=Joe Louis Walker, James Cotton - You Need Love
TTITLE9=Otis Clay - Since I've Been Loving You
TTITLE10=Carl Weathersby - Good Times, Bad Times
TTITLE11=Robert Lockwood, Jr. - Bring It on Home
TTITLE12=Robert Lockwood, Jr. - Bring it On Home (part 2)
TTITLE13=Eric Gales - Trampled Underfoot
EXTD=
EXTT0=
EXTT1=
EXTT2=
EXTT3=
EXTT4=
EXTT5=
EXTT6=
EXTT7=
EXTT8=
EXTT9=
EXTT10=
EXTT11=
EXTT12=
EXTT13=
PLAYORDER=
